<?xml version="1.0" standalone="no"?>
<!DOCTYPE svg PUBLIC "-//W3C//DTD SVG 20010904//EN"
 "http://www.w3.org/TR/2001/REC-SVG-20010904/DTD/svg10.dtd">
<svg version="1.0" xmlns="http://www.w3.org/2000/svg"
 width="200.000000pt" height="240.000000pt" viewBox="0 0 200.000000 240.000000"
 preserveAspectRatio="xMidYMid meet">

<g transform="translate(0.000000,240.000000) scale(0.100000,-0.100000)"
fill="#000000" stroke="none">
<path d="M947 2290 c-91 -23 -151 -72 -189 -155 -21 -46 -23 -69 -28 -270 -7
-263 -13 -281 -122 -427 -158 -208 -238 -386 -238 -526 0 -48 2 -53 18 -46 9
4 36 9 59 12 37 3 46 0 86 -38 28 -25 62 -73 88 -123 84 -162 121 -195 169
-147 25 25 25 34 0 85 -24 50 -66 92 -162 159 -92 66 -122 114 -122 201 0 33
9 85 19 115 19 59 62 150 70 150 3 0 -3 -17 -14 -38 -54 -107 -65 -238 -23
-303 l19 -31 6 59 c8 75 34 152 106 315 85 193 123 335 96 358 -7 6 -18 25
-24 41 -9 26 -7 33 18 61 l27 31 -18 36 c-32 63 -16 145 33 172 41 22 99 -40
99 -106 0 -22 4 -25 40 -25 38 0 40 2 40 31 0 47 29 99 66 116 68 33 134 -28
134 -122 0 -27 -6 -61 -13 -75 -11 -22 -10 -27 7 -41 16 -13 20 -30 22 -85 1
-79 40 -193 131 -384 57 -120 103 -241 103 -272 0 -13 8 -18 29 -18 28 0 30 3
37 45 13 89 -17 181 -90 280 l-37 50 40 -45 c78 -86 129 -220 117 -306 l-5
-42 54 -31 c58 -33 75 -54 75 -95 0 -21 5 -26 24 -26 22 0 25 6 36 68 27 163
-38 331 -221 563 -124 157 -132 180 -140 379 -4 91 -12 187 -18 213 -25 107
-75 178 -155 219 -47 24 -183 34 -249 18z m190 -41 c41 -20 83 -65 83 -88 0
-8 -66 -11 -215 -11 -123 0 -215 4 -215 9 0 10 88 91 99 91 3 1 29 7 56 15 61
18 134 11 192 -16z m357 -803 c50 -70 52 -76 34 -76 -7 0 -30 32 -51 70 -21
39 -36 70 -33 70 2 0 25 -29 50 -64z m-864 -43 c-35 -59 -70 -103 -81 -103
-17 0 -9 17 42 84 54 72 77 83 39 19z"/>
<path d="M1067 1913 c-25 -29 -31 -68 -12 -87 24 -23 65 -32 76 -15 22 36 -2
119 -35 119 -7 0 -20 -8 -29 -17z m30 -9 c-3 -3 -12 -4 -19 -1 -8 3 -5 6 6 6
11 1 17 -2 13 -5z"/>
<path d="M816 1894 c-9 -24 -7 -63 5 -86 11 -20 11 -20 35 3 27 25 29 37 12
74 -13 28 -43 33 -52 9z"/>
<path d="M1425 945 c-61 -60 -10 -205 72 -205 71 0 153 63 153 117 0 29 -6 37
-47 63 -85 54 -142 62 -178 25z m117 -29 c22 -15 20 -16 -45 -16 -49 0 -67 4
-67 13 0 8 3 17 8 21 11 12 78 0 104 -18z"/>
<path d="M1186 455 c-78 -39 -82 -40 -185 -40 -94 0 -112 3 -158 26 -29 14
-53 25 -53 24 0 -1 7 -17 16 -34 11 -23 15 -49 12 -83 l-5 -50 41 6 c117 19
182 23 243 15 38 -4 85 -8 106 -9 35 0 37 2 37 33 0 17 7 59 14 92 8 33 14 60
13 60 -1 0 -38 -18 -81 -40z"/>
</g>
</svg>
